<svg width="1024" height="1024" viewBox="0 0 1024 1024" fill="none" xmlns="http://www.w3.org/2000/svg">
<g clip-path="url(#clip0_3_4)">
<rect width="1024" height="1024" fill="white"/>
<rect width="1024" height="1024" fill="#FF5757"/>
<path d="M796.531 213.744L743.251 430.416C724.603 512.112 704.179 597.36 687.307 679.944C673.099 597.36 656.227 512.112 637.579 430.416L586.963 213.744H436.891L386.275 430.416C368.515 512.112 351.643 597.36 336.547 678.168C319.675 597.36 300.139 512.112 280.603 430.416L228.211 213.744H71.0352L244.195 846H412.027L465.307 622.224C482.179 547.632 498.163 470.376 512.371 394.008C525.691 470.376 541.675 547.632 559.435 622.224L611.827 846H779.659L952.819 213.744H796.531Z" fill="#FFDE59"/>
</g>
<defs>
<clipPath id="clip0_3_4">
<rect width="1024" height="1024" fill="white"/>
</clipPath>
</defs>
</svg>
